<svg xmlns="http://www.w3.org/2000/svg" version="1.1" xmlns:xlink="http://www.w3.org/1999/xlink" xmlns:svgjs="http://svgjs.dev/svgjs" width="1000" height="1000" viewBox="0 0 1000 1000"><rect width="1000" height="1000" fill="#1b4571"></rect><g transform="matrix(0.7,0,0,0.7,150,106.25)"><svg viewBox="0 0 320 360" data-background-color="#1b4571" preserveAspectRatio="xMidYMid meet" height="1125" width="1000" xmlns="http://www.w3.org/2000/svg" xmlns:xlink="http://www.w3.org/1999/xlink"><g id="tight-bounds" transform="matrix(1,0,0,1,0,0)"><svg viewBox="0 0 320 360" height="360" width="320"><rect width="320" height="360" fill="url(#0d732a19-6e0f-4042-8e0f-cbd6d4588313)" mask="url(#5a5757d6-fc76-4dda-a399-07c4f00b550c)" data-fill-palette-color="tertiary"></rect><g><svg></svg></g><g><svg viewBox="0 0 320 360" height="360" width="320"><g><path xmlns="http://www.w3.org/2000/svg" d="M160 340c88.258 0 160-71.742 160-160 0-88.258-71.742-160-160-160-88.258 0-160 71.742-160 160 0 88.258 71.742 160 160 160zM165.161 329.368v-10.323c72.671-2.684 131.2-61.213 133.884-133.884h10.323c-2.684 78.452-65.755 141.523-144.207 144.207zM165.161 30.632c78.452 2.684 141.523 65.755 144.207 144.207h-10.323c-2.684-72.671-61.213-131.2-133.884-133.884zM289.032 180c0 71.123-57.91 129.032-129.032 129.032-71.123 0-129.032-57.91-129.032-129.032 0-71.123 57.91-129.032 129.032-129.032 71.123 0 129.032 57.91 129.032 129.032zM154.839 30.632v10.323c-72.671 2.684-131.2 61.213-133.884 133.884h-10.323c2.684-78.452 65.755-141.523 144.207-144.207zM20.955 185.161c2.684 72.671 61.213 131.2 133.884 133.884v10.323c-78.452-2.684-141.523-65.755-144.207-144.207z" fill="url(#0d732a19-6e0f-4042-8e0f-cbd6d4588313)" fill-rule="nonzero" stroke="none" stroke-width="1" stroke-linecap="butt" stroke-linejoin="miter" stroke-miterlimit="10" stroke-dasharray="" stroke-dashoffset="0" font-family="none" font-weight="none" font-size="none" text-anchor="none" style="mix-blend-mode: normal" data-fill-palette-color="tertiary"></path></g><g transform="matrix(1,0,0,1,109.34304903953901,90)"><svg viewBox="0 0 101.31390192092198 180" height="180" width="101.31390192092198"><g><svg viewBox="0 0 101.31390192092198 180" height="180" width="101.31390192092198"><g><svg viewBox="0 0 192 341.1180434741813" height="180" width="101.31390192092198"><g transform="matrix(1,0,0,1,0,180.88582286460223)"><svg viewBox="0 0 192 160.2322206095791" height="160.2322206095791" width="192"><g id="textblocktransform"><svg viewBox="0 0 192 160.2322206095791" height="160.2322206095791" width="192" id="textblock"><g><svg viewBox="0 0 192 160.2322206095791" height="160.2322206095791" width="192"><g transform="matrix(1,0,0,1,0,0)"><svg width="192" viewBox="5 -28.75 34.45000076293945 28.75" height="160.2322206095791" data-palette-color="#ffffff"><path d="M5-28.75L5-28.75 10.7-28.75 21-19.05 21-11.5 11.3-20.65 11.3 0 5 0 5-28.75ZM39.45-28.75L39.45-28.75 33.8-28.75 23.45-19.05 23.45-11.5 33.15-20.65 33.15 0 39.45 0 39.45-28.75Z" opacity="1" transform="matrix(1,0,0,1,0,0)" fill="#ffffff" class="wordmark-text-0" data-fill-palette-color="primary" id="text-0"></path></svg></g></svg></g></svg></g></svg></g><g transform="matrix(1,0,0,1,36.672000000000004,0)"><svg viewBox="0 0 118.65599999999999 143.05884115197523" height="143.05884115197523" width="118.65599999999999"><g><svg xmlns="http://www.w3.org/2000/svg" xmlns:xlink="http://www.w3.org/1999/xlink" version="1.1" x="0" y="0" viewBox="6.5 1 53 63.900001525878906" enable-background="new 0 0 66 66" xml:space="preserve" height="143.05884115197523" width="118.65599999999999" class="icon-icon-0" data-fill-palette-color="accent" id="icon-0"></svg></g></svg></g><g></g></svg></g></svg></g></svg></g></svg></g><defs></defs><mask id="db4562e3-1ac0-4d46-ab77-980eda15c463"><g id="SvgjsG1635"><svg viewBox="0 0 320 360" height="360" width="320"><g><svg></svg></g><g><svg viewBox="0 0 320 360" height="360" width="320"><g></g><g transform="matrix(1,0,0,1,109.34304903953901,90)"><svg viewBox="0 0 101.31390192092198 180" height="180" width="101.31390192092198"><g><svg viewBox="0 0 101.31390192092198 180" height="180" width="101.31390192092198"><g><svg viewBox="0 0 192 341.1180434741813" height="180" width="101.31390192092198"><g transform="matrix(1,0,0,1,0,180.88582286460223)"><svg viewBox="0 0 192 160.2322206095791" height="160.2322206095791" width="192"><g id="SvgjsG1634"><svg viewBox="0 0 192 160.2322206095791" height="160.2322206095791" width="192" id="SvgjsSvg1633"><g><svg viewBox="0 0 192 160.2322206095791" height="160.2322206095791" width="192"><g transform="matrix(1,0,0,1,0,0)"><svg width="192" viewBox="5 -28.75 34.45000076293945 28.75" height="160.2322206095791" data-palette-color="#ffffff"></svg></g></svg></g></svg></g></svg></g><g transform="matrix(1,0,0,1,36.672000000000004,0)"><svg viewBox="0 0 118.65599999999999 143.05884115197523" height="143.05884115197523" width="118.65599999999999"><g><svg xmlns="http://www.w3.org/2000/svg" xmlns:xlink="http://www.w3.org/1999/xlink" version="1.1" x="0" y="0" viewBox="6.5 1 53 63.900001525878906" enable-background="new 0 0 66 66" xml:space="preserve" height="143.05884115197523" width="118.65599999999999" class="icon-icon-0" data-fill-palette-color="accent" id="SvgjsSvg1631"><g fill="white"><g fill="white"><path d="M33 4.6c0.6 0 1-0.4 1-1V2c0-0.6-0.4-1-1-1-0.6 0-1 0.4-1 1v1.6C32 4.1 32.4 4.6 33 4.6z" fill="white"></path></g><g fill="white"><path d="M20.2 7.3c0.3 0.5 0.9 0.6 1.4 0.4 0.5-0.3 0.6-0.9 0.4-1.4l-0.8-1.4c-0.3-0.5-0.9-0.6-1.4-0.4-0.5 0.3-0.6 0.9-0.4 1.4L20.2 7.3z" fill="white"></path></g><g fill="white"><path d="M10.4 15.6l1.4 0.8c0.5 0.3 1.1 0.1 1.4-0.4 0.3-0.5 0.1-1.1-0.4-1.4l-1.4-0.8c-0.5-0.3-1.1-0.1-1.4 0.4C9.8 14.7 10 15.3 10.4 15.6z" fill="white"></path></g><g fill="white"><path d="M55.6 39.4l-1.4-0.8c-0.5-0.3-1.1-0.1-1.4 0.4-0.3 0.5-0.1 1.1 0.4 1.4l1.4 0.8c0.5 0.3 1.1 0.1 1.4-0.4C56.2 40.2 56 39.6 55.6 39.4z" fill="white"></path></g><g fill="white"><path d="M9.1 26.5H7.5c-0.6 0-1 0.4-1 1 0 0.6 0.4 1 1 1h1.6c0.6 0 1-0.4 1-1C10.1 26.9 9.6 26.5 9.1 26.5z" fill="white"></path></g><g fill="white"><path d="M58.5 26.5h-1.6c-0.6 0-1 0.4-1 1 0 0.6 0.4 1 1 1h1.6c0.6 0 1-0.4 1-1C59.5 26.9 59 26.5 58.5 26.5z" fill="white"></path></g><g fill="white"><path d="M11.8 38.6l-1.4 0.8c-0.5 0.3-0.6 0.9-0.4 1.4 0.3 0.5 0.9 0.6 1.4 0.4l1.4-0.8c0.5-0.3 0.6-0.9 0.4-1.4C12.9 38.5 12.3 38.3 11.8 38.6z" fill="white"></path></g><g fill="white"><path d="M54.2 16.4l1.4-0.8c0.5-0.3 0.6-0.9 0.4-1.4-0.3-0.5-0.9-0.6-1.4-0.4l-1.4 0.8c-0.5 0.3-0.6 0.9-0.4 1.4C53.1 16.5 53.7 16.7 54.2 16.4z" fill="white"></path></g><g fill="white"><path d="M44.5 7.6c0.5 0.3 1.1 0.1 1.4-0.4l0.8-1.4c0.3-0.5 0.1-1.1-0.4-1.4-0.5-0.3-1.1-0.1-1.4 0.4l-0.8 1.4C43.8 6.7 44 7.4 44.5 7.6z" fill="white"></path></g><g fill="white"><path d="M23.7 59.3c0 1.2 1 2.2 2.2 2.2h1.7v1.8c0 0.9 0.7 1.6 1.6 1.6h7.5c0.9 0 1.6-0.7 1.6-1.6v-1.8h1.7c1.2 0 2.2-1 2.2-2.2v-6H23.7V59.3z" fill="white"></path></g><g fill="white"><path d="M54.7 27.1c-0.1-5.8-2.4-11.2-6.6-15.2-4.2-4-9.6-6.2-15.4-6.1-5.8 0.1-11.2 2.4-15.2 6.6-4 4.2-6.2 9.6-6.1 15.4 0.1 8.2 5 15.7 12.3 19.2v4.2H28V38.6l-5.7-1.7c-0.4-0.1-0.7-0.5-0.7-1v-3.7l-2.4-3.9C19.1 28.2 19 28 19 27.9v-5.6c-1.2-0.4-2-1.5-2-2.8 0-1.6 1.3-3 3-3 1.6 0 3 1.3 3 3 0 1.3-0.8 2.4-2 2.8v5.3l2.4 3.9c0.1 0.2 0.2 0.3 0.2 0.5v3.3l4.4 1.3v-2.7l-2.6-6.2c-0.1-0.1-0.1-0.3-0.1-0.4v-1.8c-1.1-0.4-2-1.5-2-2.8 0-1.6 1.3-3 3-3 1.6 0 3 1.3 3 3 0 1.3-0.8 2.4-2 2.8V27l2.6 6.2c0.1 0.1 0.1 0.3 0.1 0.4v4.2 13.4h2.4V32c-1.2-0.4-2.1-1.5-2.1-2.9 0-1.7 1.4-3.1 3.1-3.1 1.7 0 3.1 1.4 3.1 3.1 0 1.3-0.9 2.5-2.1 2.9v19.3h2.3V37.9v-4.2c0-0.1 0-0.3 0.1-0.4l2.6-6.2v-1.6c-1.2-0.4-2-1.5-2-2.8 0-1.6 1.3-3 3-3 1.6 0 3 1.3 3 3 0 1.3-0.8 2.4-2 2.8v1.8c0 0.1 0 0.3-0.1 0.4l-2.6 6.2v2.7l4.4-1.3V32c0-0.2 0.1-0.4 0.2-0.5l2.4-3.9v-5.3c-1.2-0.4-2-1.5-2-2.8 0-1.6 1.3-3 3-3 1.6 0 3 1.3 3 3 0 1.3-0.8 2.4-2 2.8v5.6c0 0.2-0.1 0.4-0.2 0.5L45 32.3V36c0 0.4-0.3 0.8-0.7 1l-5.7 1.7v12.7h3.7v-4.2c7.6-3.6 12.3-11.2 12.3-19.6V27.1z" fill="white"></path></g><g fill="white"><circle cx="46.6" cy="19.4" r="1.0" fill="white"></circle></g><g fill="white"><circle cx="33.4" cy="29.1" r="1.1" fill="white"></circle></g><g fill="white"><circle cx="20" cy="19.4" r="1.0" fill="white"></circle></g><g fill="white"><circle cx="40.3" cy="22.6" r="1.0" fill="white"></circle></g><g fill="white"><circle cx="26.3" cy="22.6" r="1.0" fill="white"></circle></g></g></svg></g></svg></g><g></g></svg></g></svg></g></svg></g></svg></g><defs><mask></mask></defs></svg></g></mask><linearGradient x1="0.054" x2="0.941" y1="0.5" y2="0.5" id="45dcda53-c314-4034-ad02-1f06e60e79e0"><stop stop-color="#0f3054" offset="0"></stop><stop stop-color="#3b8dcb" offset="0.498"></stop><stop stop-color="#0f3054" offset="1"></stop></linearGradient><rect width="320" height="360" fill="url(#45dcda53-c314-4034-ad02-1f06e60e79e0)" mask="url(#db4562e3-1ac0-4d46-ab77-980eda15c463)" data-fill-palette-color="accent"></rect><mask id="5a5757d6-fc76-4dda-a399-07c4f00b550c"><g id="SvgjsG1644"><svg viewBox="0 0 320 360" height="360" width="320"><g><svg></svg></g><g><svg viewBox="0 0 320 360" height="360" width="320"><g><path xmlns="http://www.w3.org/2000/svg" d="M160 340c88.258 0 160-71.742 160-160 0-88.258-71.742-160-160-160-88.258 0-160 71.742-160 160 0 88.258 71.742 160 160 160zM165.161 329.368v-10.323c72.671-2.684 131.2-61.213 133.884-133.884h10.323c-2.684 78.452-65.755 141.523-144.207 144.207zM165.161 30.632c78.452 2.684 141.523 65.755 144.207 144.207h-10.323c-2.684-72.671-61.213-131.2-133.884-133.884zM289.032 180c0 71.123-57.91 129.032-129.032 129.032-71.123 0-129.032-57.91-129.032-129.032 0-71.123 57.91-129.032 129.032-129.032 71.123 0 129.032 57.91 129.032 129.032zM154.839 30.632v10.323c-72.671 2.684-131.2 61.213-133.884 133.884h-10.323c2.684-78.452 65.755-141.523 144.207-144.207zM20.955 185.161c2.684 72.671 61.213 131.2 133.884 133.884v10.323c-78.452-2.684-141.523-65.755-144.207-144.207z" fill="white" fill-rule="nonzero" stroke="none" stroke-width="1" stroke-linecap="butt" stroke-linejoin="miter" stroke-miterlimit="10" stroke-dasharray="" stroke-dashoffset="0" font-family="none" font-weight="none" font-size="none" text-anchor="none" style="mix-blend-mode: normal"></path></g><g transform="matrix(1,0,0,1,109.34304903953901,90)"><svg viewBox="0 0 101.31390192092198 180" height="180" width="101.31390192092198"><g><svg viewBox="0 0 101.31390192092198 180" height="180" width="101.31390192092198"><g><svg viewBox="0 0 192 341.1180434741813" height="180" width="101.31390192092198"><g transform="matrix(1,0,0,1,0,180.88582286460223)"><svg viewBox="0 0 192 160.2322206095791" height="160.2322206095791" width="192"><g id="SvgjsG1643"><svg viewBox="0 0 192 160.2322206095791" height="160.2322206095791" width="192" id="SvgjsSvg1642"><g><svg viewBox="0 0 192 160.2322206095791" height="160.2322206095791" width="192"><g transform="matrix(1,0,0,1,0,0)"><svg width="192" viewBox="5 -28.75 34.45000076293945 28.75" height="160.2322206095791" data-palette-color="#ffffff"></svg></g></svg></g></svg></g></svg></g><g transform="matrix(1,0,0,1,36.672000000000004,0)"><svg viewBox="0 0 118.65599999999999 143.05884115197523" height="143.05884115197523" width="118.65599999999999"><g><svg xmlns="http://www.w3.org/2000/svg" xmlns:xlink="http://www.w3.org/1999/xlink" version="1.1" x="0" y="0" viewBox="6.5 1 53 63.900001525878906" enable-background="new 0 0 66 66" xml:space="preserve" height="143.05884115197523" width="118.65599999999999" class="icon-icon-0" data-fill-palette-color="accent" id="SvgjsSvg1640"></svg></g></svg></g><g></g></svg></g></svg></g></svg></g></svg></g><defs><mask></mask></defs><mask><g id="SvgjsG1639"><svg viewBox="0 0 320 360" height="360" width="320"><g><svg></svg></g><g><svg viewBox="0 0 320 360" height="360" width="320"><g></g><g transform="matrix(1,0,0,1,109.34304903953901,90)"><svg viewBox="0 0 101.31390192092198 180" height="180" width="101.31390192092198"><g><svg viewBox="0 0 101.31390192092198 180" height="180" width="101.31390192092198"><g><svg viewBox="0 0 192 341.1180434741813" height="180" width="101.31390192092198"><g transform="matrix(1,0,0,1,0,180.88582286460223)"><svg viewBox="0 0 192 160.2322206095791" height="160.2322206095791" width="192"><g id="SvgjsG1638"><svg viewBox="0 0 192 160.2322206095791" height="160.2322206095791" width="192" id="SvgjsSvg1637"><g><svg viewBox="0 0 192 160.2322206095791" height="160.2322206095791" width="192"><g transform="matrix(1,0,0,1,0,0)"><svg width="192" viewBox="5 -28.75 34.45000076293945 28.75" height="160.2322206095791" data-palette-color="#ffffff"></svg></g></svg></g></svg></g></svg></g><g transform="matrix(1,0,0,1,36.672000000000004,0)"><svg viewBox="0 0 118.65599999999999 143.05884115197523" height="143.05884115197523" width="118.65599999999999"><g><svg xmlns="http://www.w3.org/2000/svg" xmlns:xlink="http://www.w3.org/1999/xlink" version="1.1" x="0" y="0" viewBox="6.5 1 53 63.900001525878906" enable-background="new 0 0 66 66" xml:space="preserve" height="143.05884115197523" width="118.65599999999999" class="icon-icon-0" data-fill-palette-color="accent" id="SvgjsSvg1636"></svg></g></svg></g><g></g></svg></g></svg></g></svg></g></svg></g><defs><mask></mask></defs></svg></g></mask></svg></g></mask><linearGradient x1="0.054" x2="0.941" y1="0.5" y2="0.5" id="0d732a19-6e0f-4042-8e0f-cbd6d4588313"><stop stop-color="#8c8c8c" offset="0"></stop><stop stop-color="#e3e4e5" offset="0.498"></stop><stop stop-color="#8c8c8c" offset="1"></stop></linearGradient></svg><rect width="320" height="360" fill="none" stroke="none" visibility="hidden"></rect></g></svg></g></svg>